<?xml version="1.0" encoding="UTF-8" standalone="no"?><!DOCTYPE svg PUBLIC "-//W3C//DTD SVG 1.1//EN" "http://www.w3.org/Graphics/SVG/1.1/DTD/svg11.dtd"><svg width="100%" height="100%" viewBox="0 0 135 49" version="1.1" xmlns="http://www.w3.org/2000/svg" xmlns:xlink="http://www.w3.org/1999/xlink" xml:space="preserve" style="fill-rule:evenodd;clip-rule:evenodd;stroke-linejoin:round;stroke-miterlimit:1.41421;"><path d="M12.258,21.538l-1.974,0l0,-15.24l-4.893,0l0,-1.896l11.738,0l0,1.896l-4.871,0l0,15.24Z" style="fill:#3490dc;fill-rule:nonzero;"/><path d="M23.82,4.402c1.946,0 3.383,0.404 4.311,1.212c0.929,0.808 1.393,2.028 1.393,3.66c0,0.912 -0.153,1.672 -0.46,2.28c-0.307,0.608 -0.699,1.096 -1.174,1.464c-0.475,0.368 -0.976,0.648 -1.503,0.84l4.3,7.68l-2.303,0l-3.796,-7.08l-3.115,0l0,7.08l-1.975,0l0,-17.136l4.322,0Zm-0.109,1.872l-2.238,0l0,6.36l2.347,0c1.273,0 2.201,-0.276 2.787,-0.828c0.585,-0.552 0.877,-1.364 0.877,-2.436c0,-1.12 -0.307,-1.916 -0.921,-2.388c-0.615,-0.472 -1.565,-0.708 -2.852,-0.708Z" style="fill:#3490dc;fill-rule:nonzero;"/><path d="M42.973,21.538l-1.887,-5.304l-6.208,0l-1.865,5.304l-1.997,0l6.121,-17.208l1.777,0l6.1,17.208l-2.041,0Zm-2.479,-7.224l-1.755,-5.184c-0.044,-0.128 -0.117,-0.36 -0.219,-0.696c-0.103,-0.336 -0.202,-0.684 -0.297,-1.044c-0.095,-0.36 -0.171,-0.636 -0.23,-0.828c-0.117,0.496 -0.238,0.98 -0.362,1.452c-0.124,0.472 -0.23,0.844 -0.318,1.116l-1.777,5.184l4.958,0Z" style="fill:#3490dc;fill-rule:nonzero;"/><path d="M59.581,21.538l-2.303,0l-8.381,-14.232l-0.088,0c0.029,0.56 0.066,1.256 0.11,2.088c0.044,0.832 0.066,1.688 0.066,2.568l0,9.576l-1.821,0l0,-17.136l2.281,0l8.359,14.184l0.088,0c-0.015,-0.256 -0.033,-0.64 -0.055,-1.152c-0.022,-0.512 -0.044,-1.068 -0.066,-1.668c-0.022,-0.6 -0.033,-1.164 -0.033,-1.692l0,-9.672l1.843,0l0,17.136Z" style="fill:#3490dc;fill-rule:nonzero;"/><path d="M72.723,16.954c0,1.52 -0.505,2.704 -1.514,3.552c-1.009,0.848 -2.369,1.272 -4.08,1.272c-0.878,0 -1.69,-0.072 -2.436,-0.216c-0.746,-0.144 -1.367,-0.344 -1.865,-0.6l0,-2.064c0.527,0.256 1.181,0.488 1.964,0.696c0.782,0.208 1.591,0.312 2.424,0.312c1.156,0 2.033,-0.248 2.633,-0.744c0.6,-0.496 0.9,-1.168 0.9,-2.016c0,-0.56 -0.11,-1.032 -0.33,-1.416c-0.219,-0.384 -0.599,-0.736 -1.14,-1.056c-0.542,-0.32 -1.28,-0.672 -2.216,-1.056c-1.346,-0.528 -2.355,-1.176 -3.028,-1.944c-0.673,-0.768 -1.009,-1.816 -1.009,-3.144c0,-0.896 0.212,-1.672 0.636,-2.328c0.424,-0.656 1.009,-1.16 1.755,-1.512c0.746,-0.352 1.616,-0.528 2.611,-0.528c0.848,0 1.631,0.088 2.348,0.264c0.716,0.176 1.374,0.408 1.974,0.696l-0.614,1.848c-0.541,-0.256 -1.134,-0.472 -1.777,-0.648c-0.644,-0.176 -1.302,-0.264 -1.975,-0.264c-0.98,0 -1.718,0.228 -2.216,0.684c-0.497,0.456 -0.746,1.06 -0.746,1.812c0,0.576 0.11,1.056 0.329,1.44c0.22,0.384 0.578,0.732 1.075,1.044c0.498,0.312 1.171,0.636 2.019,0.972c0.921,0.368 1.7,0.764 2.336,1.188c0.637,0.424 1.119,0.932 1.448,1.524c0.33,0.592 0.494,1.336 0.494,2.232Z" style="fill:#3490dc;fill-rule:nonzero;"/><path d="M80.029,4.402c2.048,0 3.539,0.44 4.475,1.32c0.937,0.88 1.405,2.12 1.405,3.72c0,0.944 -0.194,1.828 -0.582,2.652c-0.387,0.824 -1.038,1.492 -1.952,2.004c-0.915,0.512 -2.154,0.768 -3.719,0.768l-1.799,0l0,6.672l-1.975,0l0,-17.136l4.147,0Zm-0.176,1.848l-1.996,0l0,6.768l1.579,0c1.492,0 2.604,-0.264 3.335,-0.792c0.732,-0.528 1.097,-1.424 1.097,-2.688c0,-1.104 -0.325,-1.928 -0.976,-2.472c-0.651,-0.544 -1.664,-0.816 -3.039,-0.816Z" style="fill:#3490dc;fill-rule:nonzero;"/><path d="M102.824,12.946c0,1.776 -0.274,3.324 -0.823,4.644c-0.548,1.32 -1.36,2.348 -2.435,3.084c-1.075,0.736 -2.395,1.104 -3.96,1.104c-1.624,0 -2.973,-0.368 -4.048,-1.104c-1.075,-0.736 -1.876,-1.768 -2.402,-3.096c-0.527,-1.328 -0.79,-2.88 -0.79,-4.656c0,-1.744 0.263,-3.276 0.79,-4.596c0.526,-1.32 1.327,-2.348 2.402,-3.084c1.075,-0.736 2.432,-1.104 4.07,-1.104c1.565,0 2.881,0.364 3.949,1.092c1.068,0.728 1.876,1.752 2.424,3.072c0.549,1.32 0.823,2.868 0.823,4.644Zm-12.374,0c0,2.16 0.417,3.86 1.251,5.1c0.833,1.24 2.135,1.86 3.905,1.86c1.77,0 3.068,-0.62 3.894,-1.86c0.826,-1.24 1.24,-2.94 1.24,-5.1c0,-2.16 -0.41,-3.852 -1.229,-5.076c-0.819,-1.224 -2.113,-1.836 -3.883,-1.836c-1.785,0 -3.094,0.612 -3.927,1.836c-0.834,1.224 -1.251,2.916 -1.251,5.076Z" style="fill:#3490dc;fill-rule:nonzero;"/><path d="M110.612,4.402c1.946,0 3.383,0.404 4.311,1.212c0.929,0.808 1.394,2.028 1.394,3.66c0,0.912 -0.154,1.672 -0.461,2.28c-0.307,0.608 -0.699,1.096 -1.174,1.464c-0.475,0.368 -0.976,0.648 -1.503,0.84l4.3,7.68l-2.303,0l-3.796,-7.08l-3.115,0l0,7.08l-1.975,0l0,-17.136l4.322,0Zm-0.109,1.872l-2.238,0l0,6.36l2.347,0c1.273,0 2.202,-0.276 2.787,-0.828c0.585,-0.552 0.877,-1.364 0.877,-2.436c0,-1.12 -0.307,-1.916 -0.921,-2.388c-0.615,-0.472 -1.565,-0.708 -2.852,-0.708Z" style="fill:#3490dc;fill-rule:nonzero;"/><path d="M124.895,21.538l-1.975,0l0,-15.24l-4.892,0l0,-1.896l11.737,0l0,1.896l-4.87,0l0,15.24Z" style="fill:#3490dc;fill-rule:nonzero;"/><path d="M26.7,28.645c-1.22,0 -2.152,0.468 -2.797,1.405c-0.644,0.936 -0.967,2.219 -0.967,3.847c0,1.643 0.298,2.914 0.894,3.815c0.596,0.901 1.552,1.351 2.87,1.351c0.602,0 1.212,-0.072 1.829,-0.216c0.617,-0.144 1.282,-0.346 1.997,-0.606l0,2.746c-0.658,0.273 -1.31,0.475 -1.955,0.605c-0.645,0.129 -1.367,0.194 -2.166,0.194c-1.555,0 -2.831,-0.328 -3.826,-0.983c-0.995,-0.656 -1.731,-1.578 -2.208,-2.767c-0.476,-1.189 -0.715,-2.576 -0.715,-4.161c0,-1.556 0.274,-2.932 0.82,-4.128c0.547,-1.196 1.342,-2.133 2.387,-2.81c1.044,-0.677 2.323,-1.016 3.837,-1.016c0.743,0 1.489,0.097 2.239,0.292c0.75,0.194 1.468,0.457 2.155,0.789l-1.03,2.658c-0.561,-0.273 -1.125,-0.511 -1.693,-0.713c-0.567,-0.202 -1.125,-0.302 -1.671,-0.302Z" style="fill:#757070;fill-rule:nonzero;"/><path d="M43.898,35.648c0,1.959 -0.501,3.472 -1.503,4.539c-1.002,1.066 -2.365,1.599 -4.089,1.599c-1.066,0 -2.015,-0.237 -2.849,-0.713c-0.834,-0.476 -1.49,-1.171 -1.966,-2.086c-0.477,-0.915 -0.715,-2.028 -0.715,-3.339c0,-1.96 0.498,-3.466 1.493,-4.518c0.995,-1.052 2.362,-1.578 4.1,-1.578c1.079,0 2.032,0.238 2.859,0.714c0.827,0.475 1.479,1.167 1.955,2.075c0.477,0.907 0.715,2.01 0.715,3.307Zm-7.926,0c0,1.167 0.185,2.05 0.557,2.648c0.371,0.598 0.978,0.897 1.819,0.897c0.827,0 1.426,-0.299 1.797,-0.897c0.372,-0.598 0.557,-1.481 0.557,-2.648c0,-1.167 -0.185,-2.043 -0.557,-2.626c-0.371,-0.584 -0.977,-0.876 -1.818,-0.876c-0.827,0 -1.427,0.292 -1.798,0.876c-0.372,0.583 -0.557,1.459 -0.557,2.626Z" style="fill:#757070;fill-rule:nonzero;"/><path d="M52.876,29.552c1.289,0 2.334,0.516 3.133,1.546c0.798,1.03 1.198,2.547 1.198,4.55c0,2.017 -0.414,3.545 -1.24,4.582c-0.827,1.038 -1.886,1.556 -3.175,1.556c-0.827,0 -1.486,-0.155 -1.977,-0.464c-0.49,-0.31 -0.89,-0.66 -1.198,-1.049l-0.168,0c0.112,0.605 0.168,1.182 0.168,1.729l0,4.756l-3.133,0l0,-16.989l2.544,0l0.442,1.534l0.147,0c0.308,-0.475 0.722,-0.886 1.24,-1.232c0.519,-0.346 1.192,-0.519 2.019,-0.519Zm-1.009,2.573c-0.813,0 -1.388,0.262 -1.724,0.788c-0.337,0.526 -0.512,1.315 -0.526,2.367l0,0.346c0,1.138 0.165,2.014 0.494,2.626c0.329,0.613 0.929,0.919 1.798,0.919c0.715,0 1.244,-0.306 1.587,-0.919c0.343,-0.612 0.515,-1.495 0.515,-2.648c0,-2.319 -0.715,-3.479 -2.144,-3.479Z" style="fill:#757070;fill-rule:nonzero;"/><path d="M57.733,29.769l3.427,0l2.165,6.635c0.112,0.332 0.196,0.663 0.253,0.995c0.056,0.331 0.098,0.684 0.126,1.059l0.063,0c0.042,-0.375 0.098,-0.728 0.168,-1.059c0.07,-0.332 0.161,-0.663 0.273,-0.995l2.124,-6.635l3.364,0l-4.857,13.314c-0.448,1.225 -1.086,2.144 -1.913,2.756c-0.827,0.612 -1.787,0.919 -2.881,0.919c-0.364,0 -0.672,-0.018 -0.925,-0.054c-0.252,-0.036 -0.476,-0.076 -0.673,-0.119l0,-2.551c0.141,0.029 0.323,0.058 0.547,0.087c0.224,0.028 0.456,0.043 0.694,0.043c0.659,0 1.177,-0.205 1.556,-0.616c0.378,-0.411 0.666,-0.904 0.862,-1.481l0.189,-0.583l-4.562,-11.715Z" style="fill:#757070;fill-rule:nonzero;"/><path d="M74.335,24.153l59.187,23.826l-59.205,-0.045l0.018,-23.781Z" style="fill:#faf622;fill-opacity:0.627451;fill-rule:nonzero;"/></svg>